<svg xmlns="http://www.w3.org/2000/svg" width="25.116" height="19.131" viewBox="0 0 25.116 19.131">
  <g id="email_1_" data-name="email (1)" transform="translate(0 -61)">
    <g id="Groupe_7180" data-name="Groupe 7180" transform="translate(0 61)">
      <path id="Tracé_7201" data-name="Tracé 7201" d="M22.908,61H2.207A2.211,2.211,0,0,0,0,63.207V77.924a2.211,2.211,0,0,0,2.207,2.207h20.7a2.211,2.211,0,0,0,2.207-2.207V63.207A2.211,2.211,0,0,0,22.908,61Zm-.3,1.472-10,10-10.085-10ZM1.472,77.619V63.505l7.087,7.026Zm1.041,1.041L9.6,71.568l2.485,2.464a.736.736,0,0,0,1.038,0l2.423-2.423L22.6,78.659Zm21.132-1.041-7.053-7.053,7.053-7.053Z" transform="translate(0 -61)"/>
    </g>
  </g>
</svg>
