<svg xmlns="http://www.w3.org/2000/svg" xmlns:xlink="http://www.w3.org/1999/xlink" width="275" height="60" viewBox="0 0 275 60"><defs><style>.a{fill:#fff;}.a,.b{opacity:0.1;}.b{clip-path:url(#a);}</style><clipPath id="a"><rect class="a" width="275" height="60"/></clipPath></defs><g class="b"><g transform="translate(32.308 14.308) rotate(-13)"><path d="M67.325,54.325a4.1,4.1,0,0,0,2.867,0l51.572-19.339V79.572a16.14,16.14,0,0,1,8.155,0V31.928l5.783-2.067a4.083,4.083,0,0,0,0-7.637L70.191-2.24a4.128,4.128,0,0,0-2.867,0L1.815,22.224a4.083,4.083,0,0,0,0,7.637Z" transform="translate(0 0)"/><path d="M11.619-.417C4.647-.417-.613,8.347-.613,19.97v8.155A4.075,4.075,0,0,0,3.465,32.2H19.774a4.075,4.075,0,0,0,4.077-4.077V19.97C23.851,8.347,18.592-.417,11.619-.417Z" transform="translate(114.221 87.62)"/><path d="M86.447-.076l-37.876,14.2a12.255,12.255,0,0,1-8.565.008L2.1-.076C-1.3,12.388-.433,20.568-.576,23.059a4.082,4.082,0,0,0,5.586,3.787c.1-.036,9.628-3.787,18.878-3.787,8.6,0,17.755,7.191,17.846,7.267a4.1,4.1,0,0,0,5.089,0c2.525-2.023,10.651-7.263,17.839-7.263,9.25,0,18.782,3.751,18.878,3.787a4.083,4.083,0,0,0,5.587-3.787C88.989,20.668,89.828,12.313,86.447-.076Z" transform="translate(24.483 47.834)"/></g></g></svg>