<?xml version="1.0" encoding="utf-8"?>
<!-- Generator: Adobe Illustrator 24.0.2, SVG Export Plug-In . SVG Version: 6.00 Build 0)  -->
<svg version="1.1" id="Layer_1" xmlns="http://www.w3.org/2000/svg" xmlns:xlink="http://www.w3.org/1999/xlink" x="0px" y="0px"
	 viewBox="0 0 1086 1000" style="enable-background:new 0 0 1086 1000;" xml:space="preserve">
<style type="text/css">
	.st0{fill:#FFFFFF;}
</style>
<g>
	<g>
		<path class="st0" d="M271.9,109.4C446.3,84.5,620.6,59.7,795,34.8c9.6-1.3,19.6,1.8,27,8s12,15.6,12.3,25.3
			c-0.1,36.2,0,72.4,0,108.5C741.4,249.3,661,337.8,597.6,437.3c-9.3-8.7-18.6-17.6-27.2-27c15-11.3,26.4-27.3,31.9-45.2
			c3.4-10.3,3.8-21.5,1.6-32.1c-2.6-12.3-8.2-23.7-14-34.7c-6.2-11.5-11.5-23.8-21-33.1c-7.5-7.8-17.8-13.4-28.8-13.5
			c-11.6-0.2-23.7,4.1-31.2,13.3c-6.2,7.5-8.5,17.5-8.5,27.1c0,9.8,2.5,19.4,6.3,28.3c8.2,21,18.4,41.1,30.1,60.3
			c-30.2,17-64.7,23.8-98.6,28.5c-65.4,9-132.3,5.9-196.7-8c0-86.1,0-172.2,0-258.3C242,126.4,255.5,111.5,271.9,109.4z
			 M534.4,189.9c-4.6,5.1-8.6,10.7-11.9,16.7c-1.2,2.7-4.8,3.7-7.1,1.9c-5.6-3.4-11-7-16.6-10.4c-7.5,9.6-14.1,20.1-19.7,31
			c8.9,5.6,17.8,11.3,26.8,16.9c4.8-5.4,8.9-11.4,12.5-17.6c1.1-2.2,4.1-3.3,6.3-1.9c5.8,3.3,11.6,6.6,17.5,9.9
			c3.1-3.1,5.4-6.9,7.8-10.6c4.2-6.6,8.3-13.4,12-20.3C552.8,200.1,543.7,194.9,534.4,189.9z"/>
	</g>
	<path class="st0" d="M879.4,77.9c10-3.9,22,4.4,21.8,15.2c-0.2,163.6-0.5,327.3-0.6,490.9c0.5,6.4-0.5,13.4-5.5,18
		c-6.1,6.3-16.9,6.1-23.2,0c8.4-2.4,15.2-10.2,15.2-19.1c0-163.3,0-326.6,0-489.9C887.3,87,884.1,81.5,879.4,77.9z"/>
	<path class="st0" d="M616.8,477c59-92.2,132.6-175,217.4-244.2c0,114.8-0.1,229.5,0.1,344.3c0.4,13.1-4.5,26.3-13.8,35.6
		c-5.2,5.3-12.1,9.2-19.6,9.5c-75.2,0.1-150.4-0.1-225.6,0.1c-27.7,26.9-55.5,53.7-83.3,80.5c-12.4-26.8-24.7-53.7-37.1-80.5
		c-57.7,0-115.3,0-173,0c-4-0.1-8.1,0.3-12.1-0.5c-10.8-2.1-20.3-9.6-25-19.6c-2.9-5.9-3.8-12.6-3.4-19.1c0.1-47.3,0-94.7,0-142.1
		c71.3,17,145.9,20.7,218.3,9.6c35.6-5.1,70.8-16.1,101.8-34.4C578.7,437.6,598.2,457,616.8,477z"/>
	<path class="st0" d="M536.3,301.3c10.2-6.5,23.5-7.5,34.8-3.4c3.9,1.3,7.9,3.3,9.9,7.1c2.8,4.6,1.7,10.1,0.9,15.1
		c-4.9,21.9-19.3,41.4-38.6,52.9c-5.2-7-10.2-14.1-15-21.3c-4.9-7.5-6.1-16.8-5.5-25.6C523.5,316.4,528,306.6,536.3,301.3z"/>
	<path class="st0" d="M223,714.2c8.8,0,17.6,0,26.4,0c0,24.6,0,49.3,0,73.9c6.9-12.5,15.5-23.8,23.2-35.7c10.6,0,21.2,0,31.8,0
		c-10.1,11.4-20.1,22.8-30.2,34.2c11.6,16.7,22.9,33.5,34.5,50.1c-10.8,0.3-21.6,0-32.4,0.1c-6.8-11.5-13.5-23-20.3-34.6
		c-2.2,2.7-4.4,5.4-6.6,8.1c0,8.8,0,17.6,0,26.4c-8.8,0-17.6,0-26.4,0C223,795.9,223,755.1,223,714.2z"/>
	<g>
		<path class="st0" d="M712,714.2c7.1,0,14.2,0,21.4,0c0,34.6,0,69.2,0,103.8c0.1,6.3,0.3,12.5,0.6,18.8c-6.4,0-12.7,0-19.1,0
			c-0.3-4.4-0.4-8.8-1-13.2c-8.3,14.9-29.1,19.2-43.5,11.1c-10.9-5.8-17.5-17.6-19.3-29.6c-2-13-0.4-27,7-38.2
			c5.9-9.1,16-15.4,26.9-16.1c10-0.9,21.2,2.3,27,11C712,746,712,730.1,712,714.2z M688.5,767.7c-5,1.2-9.3,4.5-11.9,8.8
			c-4.3,7-5.2,15.6-4.3,23.6c0.8,6.9,3.7,14,9.6,18c7.2,5,18,4.3,24.1-2.1c4.8-4.6,6.3-11.6,6-18.1c-0.3-7.2,1.2-15-2.8-21.5
			C705.4,769.3,696.3,765.7,688.5,767.7z"/>
	</g>
	<path class="st0" d="M322.4,716.6c6.6-2.6,15.5-0.5,18.6,6.4c3.2,6.3,0.5,15-6.3,17.7c-5.7,2.5-13.1,1.7-17.3-3.2
		C311.8,731.2,314.1,719.4,322.4,716.6z"/>
	<path class="st0" d="M47.1,720.4c29.8,0,59.6,0,89.4,0c0,7.4,0,14.7,0,22.1c-10.6,0-21.2,0-31.8,0c0,31.4,0,62.8,0,94.3
		c-8.8,0-17.7,0-26.5,0c0-31.4,0-62.9,0-94.3c-10.4,0-20.8,0-31.1,0C47.1,735.1,47.1,727.7,47.1,720.4z"/>
	<g>
		<path class="st0" d="M422.1,720.4c9.1,0.1,18.2,0,27.3,0.1c12.5,38.8,25.2,77.5,37.7,116.3c-7.6,0-15.3,0-22.9,0
			c-3.5-11-7-22-10.5-33c-12.3,0-24.5,0-36.8,0c-3.3,11-6.7,22-10,33c-7.4,0-14.7,0-22.1,0C397.3,798,409.7,759.2,422.1,720.4z
			 M434.8,737.7c-3.7,16.9-9.2,33.4-14.4,49.9c9.9,0,19.8,0,29.6,0c-4.6-15.1-10-29.9-13.6-45.2C436,740.8,435.6,739.2,434.8,737.7z
			"/>
	</g>
	<g>
		<path class="st0" d="M135.5,757.9c11.2-5.8,24-7.8,36.4-7.3c9.6,0.5,19.9,3.5,26.2,11.3c6.6,8.1,7.7,19,7.3,29.1
			c0.3,15.2-0.8,30.5,1.3,45.7c-7.9,0.2-15.8,0-23.7,0.1c-0.5-2.9-1.1-5.8-1.6-8.7c-10.5,12.5-31.8,14.5-43.9,3.4
			c-11.5-10.6-10.2-31.4,2.2-40.8c11.1-8.7,25.9-10.2,39.5-10.3c0.4-4.9-2.8-9.6-7.6-10.8c-10.6-2.8-21.8,0.3-31.3,5.2
			C138.9,769.1,137.1,763.5,135.5,757.9z M159.6,801.5c-5.2,3.9-5.6,13.2,0,16.9c6.2,3.8,14.9,0.9,18.5-5.2c3-4.9,1.4-10.9,1.8-16.3
			C172.9,796.9,165.4,797.2,159.6,801.5z"/>
	</g>
	<path class="st0" d="M513.6,756.5c13.9-7.2,30.9-7.4,45.3-1.9c-1.1,5.4-2.5,10.7-3.8,16c-8.4-3.5-18.2-4.7-26.8-1.2
		c-7.3,2.9-12.5,9.9-14.2,17.5c-1.7,8.1-0.9,17.1,3.7,24.2c3.6,5.5,9.6,9.2,16.1,10.2c7.4,1.1,14.9-0.1,21.8-2.8
		c1,5.3,2,10.6,2.9,15.9c-10.3,4-21.8,5.1-32.7,3.6c-10.4-1.5-20.4-6.8-26.6-15.4c-7.6-10.4-9.3-24.1-7.1-36.5
		C494.6,773.6,502.4,762.3,513.6,756.5z"/>
	<g>
		<path class="st0" d="M571.4,758.1c11.7-6.5,25.7-8.4,38.8-6.7c9.2,1.2,18.2,6.5,22.3,15.1c5.2,10,4,21.7,4.1,32.5
			c0.2,12.6-0.6,25.3,1.2,37.8c-6.4,0-12.8,0-19.3,0c-0.5-3.2-0.9-6.4-1.4-9.6c-10.1,12.6-30.9,15.7-43.4,5.2
			c-11.9-10.1-10.8-30.8,1.5-40.2c11.3-8.8,26.3-10.2,40.2-10.2c0-3.6-0.5-7.5-2.8-10.5c-2.9-3.9-7.9-5.3-12.6-5.6
			c-8.5-0.4-17.1,1.9-24.4,6.2C574.1,767.4,572.7,762.7,571.4,758.1z M594.9,799c-3.8,1.7-7.2,4.9-8,9.1c-1.2,5,0.3,11.3,5.2,13.9
			c8.1,4,18.8-0.3,22.4-8.5c2.3-5.6,0.9-11.8,1.2-17.7C608.7,795.7,601.4,796,594.9,799z"/>
	</g>
	<g>
		<path class="st0" d="M765,757.9c9.3-6.8,21.5-8.5,32.6-6.3c7.9,1.6,15.1,6.3,19.6,13c7.1,10.5,8.6,23.8,6.9,36.1
			c-18.8,0-37.6,0-56.3,0c0.2,8.7,5.7,16.9,14.1,19.6c11.4,3.8,24,1.9,35.2-1.8c1,4.9,2,9.8,3.1,14.6c-11.1,4.5-23.3,5.8-35.1,5
			c-11-0.9-22.1-5.5-29-14.4c-7.7-9.7-9.7-22.8-8.2-34.9C749.3,777,755,765,765,757.9z M775.7,769.6c-4.7,4.1-7,10.2-7.8,16.2
			c12.3,0,24.5-0.1,36.8,0c0.2-6.6-2-13.8-7.7-17.7C790.6,763.9,781.4,764.5,775.7,769.6z"/>
	</g>
	<path class="st0" d="M871.1,753.1c9-3.6,20.1-3.4,28,2.7c3.6,2.6,6,6.4,7.9,10.4c4.3-6.5,10.5-11.8,18-14.2
		c9.3-2.7,20.3-1.4,27.5,5.5c7.4,7,9.8,17.6,10,27.5c0.1,17.3,0,34.5,0,51.7c-7,0-13.9,0-20.9,0c0-16,0-31.9,0-47.8
		c-0.1-5.8-1-12.1-4.9-16.7c-3.9-4.5-10.9-5.3-16.1-2.8c-6.2,3-9.7,9.8-9.6,16.5c-0.1,16.9,0,33.8,0,50.8c-7,0-13.9,0-20.9,0
		c0-16.6,0-33.2,0-49.8c-0.1-5.6-1.3-11.7-5.5-15.7c-4.8-4.4-12.6-4.2-17.6-0.2c-4.8,3.7-7.5,9.8-7.5,15.9c0,16.6,0,33.2,0,49.8
		c-7,0-13.9,0-20.9,0c0-16.3,0-32.5,0-48.8c0-11.8,0.2-23.6-0.6-35.4c6.1,0,12.3,0,18.4,0c0.3,4.2,0.6,8.4,0.9,12.6
		C860.9,760.2,865.3,755.5,871.1,753.1z"/>
	<path class="st0" d="M315,752.4c8.8,0.1,17.6,0,26.4,0c0,28.1,0,56.3,0,84.4c-8.8,0-17.6,0-26.4,0C315,808.7,315,780.5,315,752.4z"
		/>
	<path class="st0" d="M969,752.6c7.8,0,15.6,0,23.4,0c6.7,20.6,14.4,40.9,20.1,61.8c5.5-20.7,11.8-41.2,17.7-61.8c7.7,0,15.3,0,23,0
		c-7.7,20.8-15.3,41.7-23,62.5c-5,12.9-10,25.9-17.6,37.6c-7.3,11.2-18.8,20.3-32.2,22.4c-1.6-6-3.2-12-4.8-18
		c10.9-3,20.5-10.9,25-21.3c1-2.4-0.5-4.8-1.3-6.9C989.1,803.4,979.1,778,969,752.6z"/>
	<path class="st0" d="M391.6,878.1c5.2,0,10.5,0,15.7,0c0,14.8,0,29.6,0,44.4c4.3-7.4,9.3-14.3,14-21.4c6.4-0.1,12.8,0,19.2,0
		c-6.1,6.9-12.1,13.7-18.2,20.6c7,10,13.8,20.1,20.7,30.1c-6.5,0-13.1,0-19.6,0c-4-6.9-8.1-13.8-12.1-20.7c-1.4,1.7-2.7,3.3-4,5
		c0,5.2,0,10.5,0,15.7c-5.3-0.1-10.5,0-15.8-0.1C391.7,927.1,391.6,902.6,391.6,878.1z"/>
	<g>
		<path class="st0" d="M653.5,878.1c4.3,0,8.6,0,12.9,0c0.2,24.5-0.5,49.1,0.4,73.6c-3.8,0-7.7,0-11.5,0c-0.2-2.6-0.4-5.3-0.5-7.9
			c-5.5,9.6-19.4,11.8-28.2,5.5c-7.6-5.4-10.5-15.3-10-24.3c0.3-8.3,3.8-16.9,10.9-21.5c7.8-5.2,19.9-4.8,25.9,3
			C653.5,897,653.5,887.5,653.5,878.1z M638.5,910.7c-4.8,1.6-7.6,6.5-8.4,11.3c-1,5.8-0.4,12.6,3.8,17.2c4.4,4.7,12.8,4.5,16.8-0.5
			c4.1-4.9,2.7-11.7,2.8-17.5C653.5,913.7,645.4,908,638.5,910.7z"/>
	</g>
	<path class="st0" d="M451.5,879.5c5.2-2.1,12.1,1.5,11.7,7.5c0.4,6.5-7.9,10-13,6.8C444.7,890.9,445.4,881.3,451.5,879.5z"/>
	<path class="st0" d="M305,890c5.2-1.2,10.3-2.4,15.5-3.6c0,4.8,0,9.7,0,14.5c3.8,0,7.5,0,11.3,0c0,3.9,0,7.8,0,11.7
		c-3.8,0-7.5,0-11.2,0c0,6.1,0,12.2,0,18.3c0.1,2.6,0,5.5,1.9,7.5c2.5,2.1,6,1.1,9,1c0,4,0,8,0,12.1c-6.4,1.5-13.8,2.3-19.8-1.3
		c-4.9-2.9-6.3-8.9-6.6-14.2c-0.1-7.8,0-15.6-0.1-23.4c-2.3,0-4.5,0-6.8,0c0-3.9,0-7.8,0-11.7c2.3,0,4.5,0,6.8,0
		C305,897.3,305,893.7,305,890z"/>
	<g>
		<path class="st0" d="M339.1,904.3c8.9-4.4,19.4-5.6,29-3.2c7.5,1.9,12.5,9.3,12.9,16.9c0.5,11.2-0.4,22.5,0.9,33.8
			c-4.7,0-9.5,0-14.2,0c-0.3-1.7-0.6-3.4-0.8-5.1c-6.4,7.1-18.5,8.6-25.9,2.5s-7-18.9,0.4-24.8c6.7-5.4,15.8-6.4,24.1-6.4
			c-0.1-2.6-1.2-5.4-3.8-6.3c-6.5-2.2-13.6-0.2-19.5,2.9C341.1,911.1,340.1,907.7,339.1,904.3z M351.2,935c-1.1,6.1,6.9,8.6,11,5.3
			c4.4-2.6,3.7-8.1,3.7-12.4C360.5,927.9,352.3,928.3,351.2,935z"/>
	</g>
	<g>
		<path class="st0" d="M474,904.3c8.4-4.1,18.5-5.6,27.6-2.8c7,2.2,11.1,9.4,11.4,16.4c0.5,11.2-0.5,22.6,0.8,33.8
			c-3.9,0-7.7,0-11.6,0c-0.3-1.9-0.5-3.7-0.8-5.6c-6.2,7.3-18.2,9.3-25.8,3.3c-7.4-5.9-7-18.5,0.4-24.3c6.8-5.5,16-6.1,24.4-6.4
			c-0.1-3.3-1.2-6.9-4.4-8.2c-6.4-2.6-13.7-0.5-19.6,2.5C475.5,910.1,474.6,907.2,474,904.3z M486.2,930.2c-4.2,2.8-4.4,10,0.1,12.6
			c4.4,2.2,10.1,0.4,12.8-3.7c2.4-3.5,1.3-8,1.6-12C495.7,927.2,490.4,927.3,486.2,930.2z"/>
	</g>
	<path class="st0" d="M532.6,904.7c8.6-5.5,19.8-5.8,29.2-2.3c-0.8,3.2-1.6,6.4-2.3,9.6c-5.7-2.2-12.7-3-18.1,0.4
		c-9,5.8-9.3,20.8-1,27.3c5.6,4.2,13.3,3.3,19.5,1c0.6,3.2,1.2,6.3,1.8,9.5c-10.7,3.8-24.1,4-32.9-4.1
		C517.5,935.1,519.1,913.4,532.6,904.7z"/>
	<g>
		<path class="st0" d="M569.1,904.6c6.6-3.7,14.4-4.9,21.9-4.3c4.7,0.4,9.6,2.2,12.7,5.9c3,3.5,4.3,8.3,4.6,12.9
			c0.2,10.9-0.4,21.8,0.8,32.6c-3.9,0-7.7,0-11.6,0c-0.3-1.9-0.5-3.7-0.8-5.6c-6.1,7.1-17.8,9.2-25.5,3.5c-7.9-5.9-7.5-19.2,0.4-25
			c6.8-5.2,15.8-5.8,24.1-6.1c-0.2-3.4-1.5-7.2-5-8.5c-6.3-2.2-13.4-0.3-19.1,2.7C570.8,910.1,570,907.3,569.1,904.6z M581.4,930.3
			c-4.3,2.8-4.2,10.6,0.7,12.7c5.2,2.2,11.8-0.9,13.4-6.3c0.7-3.2,0.3-6.5,0.4-9.7C590.9,927.2,585.5,927.2,581.4,930.3z"/>
	</g>
	<g>
		<path class="st0" d="M680.4,909.4c7-10,22.6-12.5,32.4-5.2c7.6,6,9.4,16.7,8.2,25.9c-11.3,0-22.6,0-33.9,0c0.2,5,3.1,9.8,7.9,11.5
			c7,2.6,14.8,1.4,21.6-0.8c0.6,3,1.2,5.9,1.9,8.9c-7.6,2.9-16,3.8-24,2.6c-7.8-1.2-15.1-6.5-17.8-14.1
			C673.3,928.8,674.5,917.6,680.4,909.4z M691.1,912.2c-2.4,2.4-3.3,5.7-4,8.9c7.4,0,14.8,0,22.2,0c-0.3-3-0.8-6.3-2.8-8.7
			C702.9,907.7,695,907.9,691.1,912.2z"/>
	</g>
	<path class="st0" d="M740.8,908.8c4.4-7.4,14.2-10.9,22.1-7.4c3.5,1.5,6.1,4.5,7.7,7.9c3.3-4.8,8.4-8.7,14.3-9.1
		c5.1-0.6,10.5,1,13.9,5c4.3,4.8,5.1,11.6,5.1,17.8c0,9.6,0,19.1,0,28.7c-4.2,0-8.3,0-12.5,0c0-9.9,0.1-19.8,0-29.6
		c-0.1-4.4-1.6-9.9-6.4-11.2c-5.7-1.9-11.6,3.3-11.8,9c-0.3,10.6,0,21.2-0.2,31.8c-4.2,0-8.3,0-12.5,0c0-9.9,0-19.8,0-29.7
		c0-3.9-1.1-8.5-4.9-10.5c-3.8-2-8.7-0.3-11,3.1c-1.8,2.4-2.6,5.5-2.5,8.5c0,9.6,0,19.2,0,28.8c-4.2,0-8.3,0-12.5,0
		c-0.2-16.8,0.4-33.7-0.4-50.5c3.7,0,7.3,0,11,0C740.5,903.7,740.6,906.3,740.8,908.8z"/>
	<path class="st0" d="M83.1,901.5c2.6,0,5.2,0,7.7,0c4.2,13.9,8.9,27.6,12.4,41.7c2.6-14.2,7.3-27.8,11-41.7c3.1,0,6.1,0,9.2,0
		c-5.4,16.7-10.8,33.4-16.1,50.2c-2.8,0-5.7,0-8.5,0c-4.1-13.3-8.9-26.4-12.1-40c-3.4,13.6-8.3,26.7-12.7,40c-2.8,0-5.6,0-8.4,0
		c-5-16.8-10.1-33.5-15.1-50.2c3.2,0,6.3,0,9.5,0c3.5,13.9,7.5,27.7,10.5,41.8C73.8,929,78.8,915.4,83.1,901.5z"/>
	<path class="st0" d="M126,901.4c3.2,0,6.3,0,9.5,0c3.4,13.9,7.5,27.6,10.4,41.6c3.7-14,8.5-27.7,12.8-41.6c2.6,0,5.2,0,7.8,0
		c4.1,13.9,9,27.6,12.3,41.8c2.7-14.2,7.4-27.9,11.1-41.8c3.1,0,6.1,0,9.2,0c-5.4,16.7-10.8,33.5-16.2,50.3c-2.8,0-5.6,0-8.5,0
		c-4.1-13.4-9-26.6-12.1-40.2c-3.2,13.7-8.3,26.9-12.7,40.2c-2.8,0-5.6,0-8.4,0C136.1,935,131,918.2,126,901.4z"/>
	<path class="st0" d="M234.1,901.4c2.6,0,5.1,0,7.7,0c4.2,13.9,8.9,27.6,12.4,41.7c2.6-14.2,7.3-27.8,11-41.7c3.1,0,6.1,0,9.2,0
		c-5.4,16.8-10.8,33.5-16.2,50.3c-2.8,0-5.6,0-8.4,0c-4.2-13.5-9.1-26.8-12.2-40.5c-2.9,13.9-8.3,27-12.6,40.5c-2.8,0-5.7,0-8.5,0
		c-5-16.8-10.1-33.5-15.1-50.2c3.2,0,6.3,0,9.5,0c3.4,13.9,7.6,27.7,10.4,41.8C224.9,929.1,229.8,915.3,234.1,901.4z"/>
	<path class="st0" d="M446.9,901c5.3,0,10.5,0,15.8,0c-0.1,16.9,0,33.8,0,50.7c-5.3,0-10.5,0-15.7,0
		C446.8,934.8,446.9,917.9,446.9,901z"/>
	<path class="st0" d="M807.8,901.2c4.7,0,9.4,0,14.1,0c4,12.3,8.6,24.4,12,37c3.4-12.3,7.1-24.6,10.6-36.9c4.6,0,9.2,0,13.8,0
		c-6.7,17.4-12.3,35.3-20,52.2c-4.4,10-12.4,19.5-23.7,21.4c-1-3.6-2-7.3-2.9-10.9c6.8-2,13-7,15.2-13.8
		C821,933.7,814.1,917.5,807.8,901.2z"/>
	<path class="st0" d="M887,907.1c8.4-7.5,21.3-8.2,31.4-4.1c-0.7,2.4-1.4,4.8-2.1,7.2c-6.2-2.8-13.9-3.4-20,0.1
		c-11.2,6.9-11.2,26.4,0.4,33c6.1,3.4,13.7,2.3,19.9-0.3c0.5,2.3,1,4.7,1.6,7c-9.8,3.9-22.2,4.4-30.8-2.5
		C875.7,937.6,875.8,917.3,887,907.1z"/>
	<g>
		<path class="st0" d="M939.4,901.6c8-2.3,17.3-1.3,23.8,4.2c5.6,4.7,8.3,12,8.4,19.1c0.3,7.2-1.5,14.8-6.5,20.2
			c-9.2,10.2-27.4,10.6-36.4,0c-6.4-7.3-7.5-18-5-27.1C925.8,910.3,931.8,903.8,939.4,901.6z M943.5,907.8c-5.9,1.4-9.7,7-10.9,12.6
			c-1.8,7.9-0.4,17.4,6.3,22.7c5.2,4.2,13.3,3.6,17.9-1.3c7-7.5,7.3-19.9,1.9-28.4C955.6,908.4,949.1,906.2,943.5,907.8z"/>
	</g>
	<path class="st0" d="M980.9,901.4c2.6,0,5.3,0,7.9,0c0.2,2.8,0.3,5.5,0.4,8.3c3.9-7.3,12.8-11.2,20.8-8.7c4.5,1.3,7.6,5.1,9.5,9.2
		c3.1-5.5,8.9-9.9,15.5-9.9c4.7-0.4,9.6,1.4,12.7,5c4,4.5,5.1,10.8,5.1,16.6c0,9.9,0,19.8,0,29.7c-3,0-6,0-9,0c0-9.9,0-19.8,0-29.7
		c-0.2-4.4-1.1-9.3-4.7-12.2c-3.8-2.9-9.7-2.4-13.2,0.9c-2.9,2.5-4.4,6.4-4.3,10.2c0,10.3,0,20.5,0,30.8c-3,0-6,0-9,0
		c0-10.6,0.1-21.1-0.1-31.7c-0.1-5.1-2.8-11.1-8.4-11.9c-7.4-1.5-13.7,5.8-13.8,12.8c-0.1,10.2-0.1,20.5,0,30.7c-3,0.1-6,0.1-9,0.1
		C981.1,935,981.6,918.2,980.9,901.4z"/>
	<path class="st0" d="M284.2,936.9c5.3-2.3,11.7,2.4,10.8,8.1c0.2,5.4-5.6,9.3-10.6,7.4C277.6,950.5,277.4,939.2,284.2,936.9z"/>
	<path class="st0" d="M861.3,937.5c4.9-3.1,12.3,0.5,12.1,6.5c0.8,5.6-5,10.5-10.4,8.6C856.5,950.8,855.6,940.7,861.3,937.5z"/>
</g>
</svg>
