<svg xmlns="http://www.w3.org/2000/svg" xmlns:xlink="http://www.w3.org/1999/xlink" width="21.5" height="21.5" viewBox="0 0 21.5 21.5">
  <defs>
    <clipPath id="clip-path">
      <path id="Mask" d="M17.947,21H2.035A2.028,2.028,0,0,1,0,18.985V5.148A2.028,2.028,0,0,1,2.035,3.133H8.083L13.5.152A1.238,1.238,0,0,1,14.09,0a1.223,1.223,0,0,1,1.068.622l1.411,2.511h1.379a2.028,2.028,0,0,1,2.035,2.015V9.783H21v5.138H19.982v4.064A2.028,2.028,0,0,1,17.947,21ZM2.035,3.939A1.217,1.217,0,0,0,.814,5.148V18.985a1.217,1.217,0,0,0,1.221,1.209H17.947a1.216,1.216,0,0,0,1.221-1.209V14.922H16.191a2.5,2.5,0,0,1-2.508-2.483v-.173a2.5,2.5,0,0,1,2.508-2.483h2.977V5.819H2.29a.4.4,0,1,1,0-.806H4.666L6.619,3.939Zm14.155,6.65A1.687,1.687,0,0,0,14.5,12.265v.173a1.687,1.687,0,0,0,1.694,1.677h4V10.589Zm.831-6.65.6,1.075h1.53a1.214,1.214,0,0,0-1.208-1.075ZM14.084.808a.394.394,0,0,0-.192.049L6.342,5.013H16.693l-2.247-4A.417.417,0,0,0,14.084.808Zm2.454,12.466a.89.89,0,1,1,.9-.89A.9.9,0,0,1,16.539,13.275Z" stroke="#000" stroke-width="0.5"/>
    </clipPath>
  </defs>
  <g id="Rectangle_3" data-name="Rectangle 3" transform="translate(0.194 0.599)">
    <path id="Mask-2" data-name="Mask" d="M17.947,21H2.035A2.028,2.028,0,0,1,0,18.985V5.148A2.028,2.028,0,0,1,2.035,3.133H8.083L13.5.152A1.238,1.238,0,0,1,14.09,0a1.223,1.223,0,0,1,1.068.622l1.411,2.511h1.379a2.028,2.028,0,0,1,2.035,2.015V9.783H21v5.138H19.982v4.064A2.028,2.028,0,0,1,17.947,21ZM2.035,3.939A1.217,1.217,0,0,0,.814,5.148V18.985a1.217,1.217,0,0,0,1.221,1.209H17.947a1.216,1.216,0,0,0,1.221-1.209V14.922H16.191a2.5,2.5,0,0,1-2.508-2.483v-.173a2.5,2.5,0,0,1,2.508-2.483h2.977V5.819H2.29a.4.4,0,1,1,0-.806H4.666L6.619,3.939Zm14.155,6.65A1.687,1.687,0,0,0,14.5,12.265v.173a1.687,1.687,0,0,0,1.694,1.677h4V10.589Zm.831-6.65.6,1.075h1.53a1.214,1.214,0,0,0-1.208-1.075ZM14.084.808a.394.394,0,0,0-.192.049L6.342,5.013H16.693l-2.247-4A.417.417,0,0,0,14.084.808Zm2.454,12.466a.89.89,0,1,1,.9-.89A.9.9,0,0,1,16.539,13.275Z" transform="translate(0.056 -0.349)" stroke="#000" stroke-width="0.5"/>
  </g>
</svg>
